<svg xmlns="http://www.w3.org/2000/svg" viewBox="0 0 512 512">
<rect width="512" height="512" rx="44" fill="#E8ECF1"/>

<circle cx="196" cy="176" r="34" fill="#FFD3B6"/>
<circle cx="316" cy="176" r="34" fill="#FFD3B6"/>
<ellipse cx="256" cy="276" rx="128" ry="120" fill="#FFD3B6"/>
<path d="M216 238 l4 10 10 4 -10 4 -4 10 -4-10 -10-4 10-4z" fill="#3A3A44"/><path d="M296 238 l4 10 10 4 -10 4 -4 10 -4-10 -10-4 10-4z" fill="#3A3A44"/>
<path d="M236 292 q10 12 20 0 q10 12 20 0" stroke="#3A3A44" stroke-width="6" fill="none" stroke-linecap="round"/>
<path d="M172 342 q84 34 168 0 l-6 26 q-78 30 -156 0 Z" fill="#EF8354"/><rect x="300" y="352" width="26" height="52" rx="10" fill="#EF8354"/>
</svg>