<svg xmlns="http://www.w3.org/2000/svg" viewBox="0 0 512 512">
<rect width="512" height="512" rx="44" fill="#C9C4E4"/>
<path d="M96 106 l5 10 10 4 -10 4 -5 10 -5-10 -10-4 10-4z" fill="#FFF3C4"/><path d="M416 90 l5 10 10 4 -10 4 -5 10 -5-10 -10-4 10-4z" fill="#FFF3C4"/><path d="M72 346 l5 10 10 4 -10 4 -5 10 -5-10 -10-4 10-4z" fill="#FFF3C4"/><path d="M432 378 l5 10 10 4 -10 4 -5 10 -5-10 -10-4 10-4z" fill="#FFF3C4"/><path d="M376 186 l5 10 10 4 -10 4 -5 10 -5-10 -10-4 10-4z" fill="#FFF3C4"/>
<circle cx="196" cy="176" r="34" fill="#4A4A55"/>
<circle cx="316" cy="176" r="34" fill="#4A4A55"/>
<ellipse cx="256" cy="276" rx="128" ry="120" fill="#4A4A55"/>
<path d="M216 238 l4 10 10 4 -10 4 -4 10 -4-10 -10-4 10-4z" fill="#F4F4F6"/><path d="M296 238 l4 10 10 4 -10 4 -4 10 -4-10 -10-4 10-4z" fill="#F4F4F6"/>
<path d="M238 300 q18 -14 36 0" stroke="#F4F4F6" stroke-width="7" fill="none" stroke-linecap="round"/>
<g transform="translate(256 150)"><path d="M0 0 L-34 -20 L-34 20 Z" fill="#F48FB1"/><path d="M0 0 L34 -20 L34 20 Z" fill="#F48FB1"/><circle r="10" fill="#EC6D9B"/></g>
</svg>