<svg xmlns="http://www.w3.org/2000/svg" viewBox="0 0 512 512">
<rect width="512" height="512" rx="44" fill="#F7DCE4"/>

<circle cx="196" cy="176" r="34" fill="#F4F4F6"/>
<circle cx="316" cy="176" r="34" fill="#F4F4F6"/>
<ellipse cx="256" cy="276" rx="128" ry="120" fill="#F4F4F6"/>
<path d="M216 238 l4 10 10 4 -10 4 -4 10 -4-10 -10-4 10-4z" fill="#3A3A44"/><path d="M296 238 l4 10 10 4 -10 4 -4 10 -4-10 -10-4 10-4z" fill="#3A3A44"/>
<ellipse cx="256" cy="296" rx="12" ry="15" fill="#3A3A44"/>
<g transform="translate(256 150)"><path d="M0 0 L-34 -20 L-34 20 Z" fill="#F48FB1"/><path d="M0 0 L34 -20 L34 20 Z" fill="#F48FB1"/><circle r="10" fill="#EC6D9B"/></g>
</svg>